<?xml version="1.0" encoding="utf-8"?>
<!-- Generator: Adobe Illustrator 18.0.0, SVG Export Plug-In . SVG Version: 6.00 Build 0)  -->
<!DOCTYPE svg PUBLIC "-//W3C//DTD SVG 1.1//EN" "http://www.w3.org/Graphics/SVG/1.1/DTD/svg11.dtd">
<svg version="1.1" id="Layer_1" xmlns="http://www.w3.org/2000/svg" xmlns:xlink="http://www.w3.org/1999/xlink" x="0px" y="0px"
	 viewBox="0 0 595.3 162" enable-background="new 0 0 595.3 162" xml:space="preserve">
<g>
	<path fill="#85A6BB" d="M539.8,113.2c-16.9,0-29.3-11.8-29.3-29V84c0-16,11.4-29.2,27.7-29.2c18.7,0,27,15.4,27,27
		c0,4.6-3.2,7.6-7.4,7.6h-31.5c1.6,7.2,6.6,11,13.7,11c4.4,0,8.1-1.4,11.3-3.8c1.2-0.8,2.2-1.3,3.9-1.3c3.6,0,6.2,2.7,6.2,6.3
		c0,2.1-0.9,3.7-2.1,4.7C554.4,110.6,548,113.2,539.8,113.2z M550.1,79.5c-0.9-7.1-5.1-11.9-11.8-11.9c-6.6,0-10.9,4.7-12.1,11.9
		H550.1z"/>
</g>
<g>
	<path fill="#C3D4E9" d="M22.3,48.9c-0.3-0.9-0.6-2.1-0.6-3c0-4.5,3.8-7.9,8.3-7.9c3.8,0,6.8,2.4,7.8,5.8l14.5,44.9L67,44.2
		c1.3-3.8,4.1-6.4,8.2-6.4h1.3c4.1,0,6.9,2.5,8.2,6.4l14.7,44.5l14.5-44.9c1-3.1,3.8-5.8,7.7-5.8c4.4,0,8,3.3,8,7.7
		c0,0.9-0.3,2.2-0.6,3.1l-20.5,57.6c-1.5,4.1-4.5,6.6-8.4,6.6h-1.7c-3.9,0-6.8-2.4-8.3-6.6l-14.4-42l-14.4,42
		c-1.5,4.2-4.4,6.6-8.3,6.6h-1.7c-3.9,0-6.9-2.5-8.4-6.6L22.3,48.9z"/>
	<path fill="#C3D4E9" d="M244.6,63.1c0-4.4,3.6-8,8-8c4.4,0,8,3.6,8,8v0.6c3.7-4.7,8.5-9,16.5-9c7.3,0,12.9,3.2,15.8,8.9
		c4.9-5.8,10.8-8.9,18.4-8.9c11.8,0,18.9,7.1,18.9,20.6v29.2c0,4.4-3.6,8-8,8c-4.4,0-8-3.6-8-8v-24c0-7.5-3.3-11.4-9.3-11.4
		s-9.6,3.9-9.6,11.4v24c0,4.4-3.6,8-8,8c-4.4,0-8-3.6-8-8v-24c0-7.5-3.3-11.4-9.3-11.4c-6,0-9.6,3.9-9.6,11.4v24c0,4.4-3.6,8-8,8
		c-4.4,0-8-3.6-8-8V63.1z"/>
	<path fill="#85A6BB" d="M340.5,46.7c0-4.5,3.6-8.1,8.1-8.1h26c8.4,0,15,2.3,19.2,6.5c3.3,3.3,5,7.4,5,12.5v0.2
		c0,8.3-4.4,12.9-9.6,15.8c8.5,3.2,13.7,8.2,13.7,18v0.2c0,13.4-10.9,20.1-27.4,20.1h-26.8c-4.5,0-8.1-3.6-8.1-8.1V46.7z
		 M371.1,68.3c7.1,0,11.6-2.3,11.6-7.7v-0.2c0-4.8-3.8-7.5-10.6-7.5h-15.9v15.5H371.1z M375.4,97.8c7.1,0,11.4-2.5,11.4-8v-0.2
		c0-4.9-3.7-8-11.9-8h-18.6v16.1H375.4z"/>
	<path fill="#85A6BB" d="M405.8,95.8v-0.2c0-12.2,9.3-17.9,22.6-17.9c5.7,0,9.7,0.9,13.7,2.3v-0.9c0-6.6-4.1-10.3-12-10.3
		c-4.4,0-8,0.6-11,1.6c-0.9,0.3-1.6,0.4-2.3,0.4c-3.7,0-6.6-2.8-6.6-6.5c0-2.8,1.8-5.2,4.3-6.2c5-1.9,10.5-2.9,17.9-2.9
		c8.7,0,15,2.3,18.9,6.3c4.2,4.2,6.1,10.4,6.1,17.9v25.5c0,4.3-3.5,7.6-7.7,7.6c-4.6,0-7.6-3.2-7.6-6.6v-0.1
		c-3.9,4.3-9.2,7.1-17,7.1C414.5,113,405.8,106.9,405.8,95.8z M442.4,92.1v-2.8c-2.7-1.3-6.3-2.1-10.2-2.1c-6.8,0-11,2.7-11,7.7v0.2
		c0,4.3,3.6,6.8,8.7,6.8C437.3,102,442.4,97.9,442.4,92.1z"/>
	<path fill="#85A6BB" d="M464.4,106.6c-1.7-1-3-2.9-3-5.4c0-3.6,2.7-6.3,6.3-6.3c1.2,0,2.3,0.3,3.1,0.8c5.3,3.3,10.7,5,15.2,5
		c4.6,0,6.7-1.7,6.7-4.2v-0.2c0-3.5-5.4-4.6-11.6-6.5c-7.9-2.3-16.7-6-16.7-16.9v-0.2c0-11.4,9.2-17.8,20.5-17.8
		c5.9,0,11.9,1.6,17.4,4.3c2.3,1.2,3.8,3.2,3.8,6c0,3.6-2.8,6.3-6.4,6.3c-1.2,0-1.9-0.2-2.9-0.7c-4.5-2.2-8.8-3.6-12.1-3.6
		c-3.9,0-5.9,1.7-5.9,3.9v0.2c0,3.1,5.3,4.6,11.4,6.7c7.9,2.6,17,6.4,17,16.6v0.2c0,12.5-9.3,18.1-21.5,18.1
		C478.7,113,471.2,111,464.4,106.6z"/>
</g>
<g>
	<path fill="#85A6BB" d="M196.4,104.5c-5.3,2.2-11.6,6.4-14.4,3.9c-1.9-1.6,0.6-5.3,2-6.7c1.2-1.3,6.1-5.6,9.4-10.9
		c2.8-4.6,11-17.3-1.3-28c-12.3-10.8-35.8-9.5-44.8-4.8c-9,4.8-20.7,12.8-14.3,33.5c4.8,15.3,15.8,20.8,24,25.8
		c3.6,2.2,14.4,5.9,21.8,10.8c5.8,3.8,13,10,14.5,9c0,0,2-0.3,1.5-2.5c-0.5-2.3-4.5-8.5-8-12c-5.3-5.3-19.3-14.1-21.3-15.8
		c-11-9-17.3-14.3-19-23.8c-0.1-0.7-0.2-1.3-0.1-1.9c-0.4-4.5,1-11.5,8.8-17.2c0,0-5.3,7.2-5.1,10.3c4.2-4.2,9.4-5.3,13.9-5.7
		c4.2-0.3,13.6,0.4,18,3.9c0,0,0-4.7-2-9.4c-0.1,0.1,5.2,6.7,4.9,15c0.1,6.4-6,15.2-7.1,16.9c-2.8,4.4-3.5,9.9-2.3,13
		c1.7,4.2,6.1,5.8,10.6,4.5c6.4-1.9,6.5-2.8,13.5-5.7c9.2-3.9,14.8,4.2,14.8,4.2S210.3,98.7,196.4,104.5z"/>
</g>
<path fill="#C3D4E9" d="M232.8,55.2c-4.7,0-8.5,5-10.8,10.5v-2.5c0-4.4-3.6-8-8-8s-8,3.6-8,8v35.1c7.7,1.2,11.7,7.4,13,11.2
	c0.1,0.4,0.2,0.7,0.2,1.1c1.7-1.5,2.7-3.6,2.7-6V89.7c0-11.3,4.5-17.5,12.6-19.4c3.2-0.7,6-3.2,6-7.4
	C240.5,58.4,237.7,55.2,232.8,55.2z"/>
</svg>
