<?xml version="1.0" encoding="utf-8"?>
<!-- Generator: Adobe Illustrator 18.0.0, SVG Export Plug-In . SVG Version: 6.00 Build 0)  -->
<!DOCTYPE svg PUBLIC "-//W3C//DTD SVG 1.1//EN" "http://www.w3.org/Graphics/SVG/1.1/DTD/svg11.dtd">
<svg version="1.1" id="Layer_1" xmlns="http://www.w3.org/2000/svg" xmlns:xlink="http://www.w3.org/1999/xlink" x="0px" y="0px"
	 viewBox="0 0 326 326" enable-background="new 0 0 326 326" xml:space="preserve">
<path fill="#85A6BB" d="M244.7,192.9c-18.1,7.5-39.8,21.9-49.4,13.5c-6.5-5.6,2.2-18.1,6.8-23c4-4.3,21.1-19.4,32.3-37.4
	c9.7-15.7,37.9-59.4-4.3-96.4C187.9,12.6,107,16.9,76,33.2S4.7,77.4,26.9,148.6c16.4,52.5,54.2,71.5,82.6,88.7
	c12.5,7.6,49.5,20.5,74.9,37c19.8,12.9,44.8,34.4,49.9,31c0,0,6.9-0.9,5.2-8.6c-1.7-7.7-15.5-29.3-27.5-41.3
	c-18.1-18.1-66.3-48.6-73.2-54.2c-37.9-31-59.4-49.1-65.4-81.8c-0.4-2.3-0.6-4.5-0.5-6.7c-1.2-15.4,3.4-39.4,30.4-59
	c0,0-18.3,24.8-17.4,35.3c14.4-14.4,32.2-18.3,47.7-19.5c14.4-1.1,46.7,1.2,62,13.4c0,0,0-16.1-7-32.2c-0.2,0.3,17.9,23.1,16.7,51.8
	c0.4,21.8-20.5,52.2-24.4,58.3c-9.8,15-12,34.2-7.7,44.8c5.8,14.3,20.8,19.8,36.3,15.3c22.2-6.4,22.4-9.6,46.3-19.7
	c31.5-13.3,50.7,14.3,50.7,14.3S292.8,172.9,244.7,192.9z"/>
</svg>
