<?xml version="1.0" encoding="utf-8"?>
<!-- Generator: Adobe Illustrator 18.0.0, SVG Export Plug-In . SVG Version: 6.00 Build 0)  -->
<!DOCTYPE svg PUBLIC "-//W3C//DTD SVG 1.1//EN" "http://www.w3.org/Graphics/SVG/1.1/DTD/svg11.dtd">
<svg version="1.1" id="Layer_1" xmlns="http://www.w3.org/2000/svg" xmlns:xlink="http://www.w3.org/1999/xlink" x="0px" y="0px"
	 viewBox="0 0 595.3 595.3" enable-background="new 0 0 595.3 595.3" xml:space="preserve">
<path fill="#3C3C3B" d="M276.4,67.7c50.2,0,105.6,12.1,142.2,44.3c65.6,57.6,21.8,125.5,6.7,150c-17.4,28.1-43.9,51.5-50.2,58.2
	c-7.1,7.6-20.7,27-10.6,35.8c3.2,2.8,7.3,4,12,4c17.2,0,42.8-15.8,64.9-25c14.3-5.9,26.6-8.3,37.2-8.3c45,0,59,43.1,59,43.1
	s-19.4-27.9-52.6-27.9c-8,0-16.8,1.6-26.3,5.6c-37.1,15.7-37.5,20.7-72,30.6c-5.5,1.6-10.9,2.4-16.2,2.4c-17.8,0-33.4-9-40.3-26.2
	c-6.6-16.4-3.1-46.3,12.1-69.6c6.1-9.4,38.7-56.7,38-90.7c1.6-42.7-24-77-25.9-80.2c0-0.1-0.1-0.2-0.1-0.3c0,0,0,0.1,0.1,0.3
	c10.7,25,10.7,49.9,10.7,49.9c-20.3-16.2-60.1-21.3-85.2-21.3c-4.2,0-8,0.1-11.3,0.4c-24.1,1.9-51.9,8-74.3,30.4
	c-1.4-16.3,27.1-54.9,27.1-54.9c-42,30.5-49.2,67.9-47.3,91.8c-0.1,3.3,0.1,6.8,0.8,10.4c9.4,50.9,42.8,79,101.8,127.2
	c10.7,8.7,85.7,56.2,113.8,84.4c18.7,18.7,40.2,52.2,42.8,64.3c2.7,12.1-8,13.4-8,13.4c-0.6,0.4-1.3,0.6-2.2,0.6
	c-11.4,0-46.9-30.1-75.4-48.8c-39.5-25.8-97-45.8-116.5-57.6C187,377,128.1,347.6,102.6,265.9c-34.5-110.8,28.1-154,76.3-179.4
	C200.2,75.2,236.7,67.7,276.4,67.7 M276.4,41.2L276.4,41.2c-42.8,0-83.8,8.2-109.8,21.9c-36.4,19.2-133,70.2-89.2,210.7
	c26.5,85,86.1,120.5,129.7,146.4c3.5,2.1,7,4.2,10.4,6.2c8.9,5.4,22.2,11.3,39.1,18.6c24.1,10.6,54.1,23.8,76.7,38.5
	c9.1,6,19.3,13.4,29.1,20.6c30.1,22,45.3,32.5,60.7,32.5c3.7,0,7.3-0.6,10.6-1.8c5.6-1.6,13.9-5.3,20-14c6-8.5,7.9-19.2,5.4-30.3
	c-4.4-19.7-30.5-57.7-50-77.2c-3.4-3.4-7.3-7-11.7-10.7c20.9-6.2,30.3-11,42.1-17c7.3-3.7,15.6-7.9,29.4-13.7c5.6-2.4,11-3.6,16-3.6
	c18.5,0,30.9,16.6,31.1,16.8c5.1,7.3,13.2,11.2,21.5,11.2c4,0,8.1-0.9,11.9-2.8c11.7-5.8,17.3-19.5,13.3-32
	c-7.4-22.8-33.5-61.4-84.2-61.4c-14.9,0-30.8,3.5-47.4,10.4c-5.6,2.3-11.2,4.9-16.7,7.6c10.6-11.2,23.2-25.9,33.3-42.2l0.7-1.2
	c8.7-14.1,25-40.3,30-72.5c6.6-41.8-8.1-79.9-42.5-110.1C385.7,47.8,314.4,41.2,276.4,41.2L276.4,41.2z M213.1,191.8
	c13.6-13.6,31.4-20.6,57.6-22.7c2.6-0.2,5.8-0.3,9.2-0.3c28.6,0,57.4,6.5,68.6,15.5c4.5,3.8,5.4,7,5.3,8.7c0,0.5,0,1,0,1.6
	c0.2,8.9-3.8,30.3-32.4,73.7l-1.3,2c-12.2,18.7-19,41.3-19.5,62c-3.5-2.4-6.1-4.3-7.2-5.1c-58.7-48.1-85-71-92.5-111.5
	c-0.3-1.6-0.4-3-0.3-4.5C200.7,210,204.3,199,213.1,191.8z"/>
<radialGradient id="SVGID_1_" cx="279.2396" cy="241.2447" r="205.3134" gradientUnits="userSpaceOnUse">
	<stop  offset="0" style="stop-color:#FFFFFF"/>
	<stop  offset="0.3827" style="stop-color:#D3DFE7"/>
	<stop  offset="1" style="stop-color:#85A6BB"/>
</radialGradient>
<path fill="url(#SVGID_1_)" d="M441.4,334.8c-28.2,11.7-61.9,34.1-76.9,21c-10-8.7,3.5-28.1,10.6-35.8c6.3-6.7,32.8-30.1,50.2-58.2
	c15.1-24.4,58.9-92.4-6.7-150C353,54.3,227.2,61,179,86.5s-110.8,68.6-76.3,179.4C128.1,347.6,187,377,231.2,403.8
	c19.5,11.8,77,31.8,116.5,57.6c30.8,20.1,69.6,53.6,77.7,48.2c0,0,10.7-1.3,8-13.4c-2.7-12.1-24.1-45.5-42.8-64.3
	c-28.1-28.1-103.1-75.6-113.8-84.4c-58.9-48.2-92.4-76.3-101.8-127.2c-0.7-3.6-0.9-7-0.8-10.4c-1.9-23.9,5.3-61.3,47.3-91.8
	c0,0-28.4,38.6-27.1,54.9c22.3-22.3,50.1-28.4,74.3-30.4c22.4-1.8,72.7,1.9,96.4,20.9c0,0,0-25.1-10.8-50.1
	c-0.3,0.5,27.8,35.9,26,80.5c0.7,34-31.9,81.3-38,90.7c-15.2,23.3-18.6,53.2-12.1,69.6c8.9,22.3,32.4,30.8,56.5,23.8
	c34.5-10,34.9-15,72-30.6c49-20.7,78.9,22.2,78.9,22.2S516.2,303.8,441.4,334.8z"/>
</svg>
